<svg width="760" height="193" viewBox="0 0 760 193" fill="none" xmlns="http://www.w3.org/2000/svg">
<rect width="760" height="193" fill="#18122B"/>
<path d="M118.583 112.917H138.725C138.188 120.046 136.21 126.369 132.792 131.887C129.374 137.355 124.613 141.652 118.51 144.777C112.406 147.902 105.009 149.465 96.3174 149.465C89.6279 149.465 83.5977 148.293 78.2266 145.949C72.9043 143.557 68.3389 140.163 64.5303 135.769C60.7705 131.325 57.8896 126.003 55.8877 119.802C53.8857 113.552 52.8848 106.545 52.8848 98.7812V90.6514C52.8848 82.8877 53.9102 75.8809 55.9609 69.6309C58.0117 63.3809 60.9414 58.0586 64.75 53.6641C68.6074 49.2207 73.2217 45.8027 78.5928 43.4102C84.0127 41.0176 90.0674 39.8213 96.7568 39.8213C105.448 39.8213 112.797 41.4326 118.803 44.6553C124.809 47.8291 129.472 52.1992 132.792 57.7656C136.112 63.332 138.114 69.7285 138.798 76.9551H118.656C118.266 72.4629 117.289 68.6543 115.727 65.5293C114.213 62.4043 111.918 60.0361 108.842 58.4248C105.814 56.7646 101.786 55.9346 96.7568 55.9346C92.8506 55.9346 89.4082 56.667 86.4297 58.1318C83.5 59.5967 81.0586 61.7939 79.1055 64.7236C77.1523 67.6045 75.6875 71.2178 74.7109 75.5635C73.7344 79.8604 73.2461 84.8408 73.2461 90.5049V98.7812C73.2461 104.201 73.6855 109.06 74.5645 113.356C75.4434 117.653 76.8105 121.291 78.666 124.27C80.5215 127.248 82.9141 129.519 85.8438 131.081C88.7734 132.644 92.2646 133.425 96.3174 133.425C101.249 133.425 105.253 132.644 108.329 131.081C111.454 129.519 113.822 127.224 115.434 124.196C117.094 121.169 118.144 117.409 118.583 112.917ZM240.678 91.9697V97.4629C240.678 105.52 239.604 112.771 237.455 119.216C235.307 125.612 232.255 131.057 228.3 135.549C224.345 140.041 219.633 143.483 214.164 145.876C208.695 148.269 202.616 149.465 195.927 149.465C189.335 149.465 183.28 148.269 177.763 145.876C172.294 143.483 167.558 140.041 163.554 135.549C159.55 131.057 156.449 125.612 154.252 119.216C152.055 112.771 150.956 105.52 150.956 97.4629V91.9697C150.956 83.8643 152.055 76.6133 154.252 70.2168C156.449 63.8203 159.525 58.376 163.48 53.8838C167.436 49.3428 172.147 45.876 177.616 43.4834C183.134 41.0908 189.188 39.8945 195.78 39.8945C202.47 39.8945 208.549 41.0908 214.018 43.4834C219.486 45.876 224.198 49.3428 228.153 53.8838C232.157 58.376 235.233 63.8203 237.382 70.2168C239.579 76.6133 240.678 83.8643 240.678 91.9697ZM220.316 97.4629V91.8232C220.316 86.0127 219.779 80.9102 218.705 76.5156C217.631 72.0723 216.044 68.3369 213.944 65.3096C211.845 62.2822 209.257 60.0117 206.181 58.498C203.104 56.9355 199.638 56.1543 195.78 56.1543C191.874 56.1543 188.407 56.9355 185.38 58.498C182.401 60.0117 179.862 62.2822 177.763 65.3096C175.663 68.3369 174.052 72.0723 172.929 76.5156C171.854 80.9102 171.317 86.0127 171.317 91.8232V97.4629C171.317 103.225 171.854 108.327 172.929 112.771C174.052 117.214 175.663 120.974 177.763 124.05C179.911 127.077 182.499 129.372 185.526 130.935C188.554 132.497 192.021 133.278 195.927 133.278C199.833 133.278 203.3 132.497 206.327 130.935C209.354 129.372 211.894 127.077 213.944 124.05C216.044 120.974 217.631 117.214 218.705 112.771C219.779 108.327 220.316 103.225 220.316 97.4629ZM343.437 41.3594V148H323.222L277.885 74.0254V148H257.743V41.3594H277.885L323.368 115.407V41.3594H343.437ZM449.638 41.3594V148H429.423L384.086 74.0254V148H363.944V41.3594H384.086L429.569 115.407V41.3594H449.638ZM540.824 132.18V148H484.135V132.18H540.824ZM490.287 41.3594V148H470.146V41.3594H490.287ZM533.427 85.3779V100.832H484.135V85.3779H533.427ZM540.604 41.3594V57.2529H484.135V41.3594H540.604ZM617.216 112.917H637.357C636.82 120.046 634.843 126.369 631.425 131.887C628.007 137.355 623.246 141.652 617.143 144.777C611.039 147.902 603.642 149.465 594.95 149.465C588.261 149.465 582.23 148.293 576.859 145.949C571.537 143.557 566.972 140.163 563.163 135.769C559.403 131.325 556.522 126.003 554.521 119.802C552.519 113.552 551.518 106.545 551.518 98.7812V90.6514C551.518 82.8877 552.543 75.8809 554.594 69.6309C556.645 63.3809 559.574 58.0586 563.383 53.6641C567.24 49.2207 571.854 45.8027 577.226 43.4102C582.646 41.0176 588.7 39.8213 595.39 39.8213C604.081 39.8213 611.43 41.4326 617.436 44.6553C623.441 47.8291 628.104 52.1992 631.425 57.7656C634.745 63.332 636.747 69.7285 637.431 76.9551H617.289C616.898 72.4629 615.922 68.6543 614.359 65.5293C612.846 62.4043 610.551 60.0361 607.475 58.4248C604.447 56.7646 600.419 55.9346 595.39 55.9346C591.483 55.9346 588.041 56.667 585.062 58.1318C582.133 59.5967 579.691 61.7939 577.738 64.7236C575.785 67.6045 574.32 71.2178 573.344 75.5635C572.367 79.8604 571.879 84.8408 571.879 90.5049V98.7812C571.879 104.201 572.318 109.06 573.197 113.356C574.076 117.653 575.443 121.291 577.299 124.27C579.154 127.248 581.547 129.519 584.477 131.081C587.406 132.644 590.897 133.425 594.95 133.425C599.882 133.425 603.886 132.644 606.962 131.081C610.087 129.519 612.455 127.224 614.066 124.196C615.727 121.169 616.776 117.409 617.216 112.917ZM696.537 41.3594V148H676.469V41.3594H696.537ZM729.643 41.3594V57.2529H643.729V41.3594H729.643Z" fill="white"/>
<rect x="30" y="26" width="114" height="142" fill="#18122B"/>
<rect x="41" y="148" width="115" height="20" transform="rotate(-90 41 148)" fill="#DFF5FF"/>
<rect x="133" y="53" width="92" height="20" transform="rotate(-180 133 53)" fill="#DFF5FF"/>
<rect x="113" y="72" width="26" height="20" transform="rotate(-90 113 72)" fill="#DFF5FF"/>
<rect x="133" y="148" width="92" height="20" transform="rotate(-180 133 148)" fill="#DFF5FF"/>
<rect x="113" y="133" width="24" height="20" transform="rotate(-90 113 133)" fill="#DFF5FF"/>
<rect x="113" y="39" width="25" height="20" transform="rotate(-90 113 39)" fill="#DFF5FF"/>
</svg>
